<svg xmlns="http://www.w3.org/2000/svg" viewBox="0 0 32 32" width="32" height="32">
  <!-- 背景圆形 -->
  <circle cx="16" cy="16" r="15" fill="#f8f9fa" stroke="#e0e0e0" stroke-width="0.5"/>
  
  <!-- 鼠标指针 -->
  <path d="M11,11 L16,16 L13,18 L15,22 L13,23 L11,19 L9,21 Z" fill="#3b3e43" stroke="#3b3e43" stroke-width="0.5"/>
  
  <!-- 手势轨迹 - 四个方向 -->
  <path d="M16,16 L16,6" stroke="#4285f4" stroke-width="1.5" stroke-linecap="round" fill="none"/>
  <path d="M16,16 L16,26" stroke="#34a853" stroke-width="1.5" stroke-linecap="round" fill="none"/>
  <path d="M16,16 L6,16" stroke="#ea4335" stroke-width="1.5" stroke-linecap="round" fill="none"/>
  <path d="M16,16 L26,16" stroke="#fbbc05" stroke-width="1.5" stroke-linecap="round" fill="none"/>
  
  <!-- 方向箭头 -->
  <polygon points="14,8 16,5 18,8" fill="#4285f4"/>
  <polygon points="14,24 16,27 18,24" fill="#34a853"/>
  <polygon points="8,14 5,16 8,18" fill="#ea4335"/>
  <polygon points="24,14 27,16 24,18" fill="#fbbc05"/>
  
  <!-- 中心点 -->
  <circle cx="16" cy="16" r="1.5" fill="#3b3e43"/>
</svg>